<svg preserveAspectRatio="none" width="100%" height="100%" overflow="visible" style="display: block;" viewBox="0 0 24 24" fill="none" xmlns="http://www.w3.org/2000/svg">
<g id="si:copy-alt-line">
<path id="Vector" d="M18 9H18.6C19.93 9 21 10.07 21 11.4V18.6C21 19.93 19.93 21 18.6 21H11.4C10.07 21 9 19.93 9 18.6V18M5.4 3H12.6C13.2365 3 13.847 3.25286 14.2971 3.70294C14.7471 4.15303 15 4.76348 15 5.4V12.6C15 13.2365 14.7471 13.847 14.2971 14.2971C13.847 14.7471 13.2365 15 12.6 15H5.4C5.08483 15 4.77274 14.9379 4.48156 14.8173C4.19038 14.6967 3.9258 14.5199 3.70294 14.2971C3.25286 13.847 3 13.2365 3 12.6V5.4C3 5.08483 3.06208 4.77274 3.18269 4.48156C3.3033 4.19038 3.48008 3.9258 3.70294 3.70294C4.15303 3.25286 4.76348 3 5.4 3Z" stroke="var(--stroke-0, #222226)" stroke-width="1.5" stroke-miterlimit="10" stroke-linecap="round" stroke-linejoin="round"/>
</g>
</svg>
