<svg preserveAspectRatio="none" width="100%" height="100%" overflow="visible" style="display: block;" viewBox="0 0 31.8488 18.2006" fill="none" xmlns="http://www.w3.org/2000/svg">
<g id="icon_circle_horizontal 1">
<path id="Vector" d="M6.82402 9.1C6.82402 6.68653 7.78277 4.37191 9.48935 2.66533C11.1959 0.958746 13.5106 0 15.924 0C18.3375 0 20.6521 0.958746 22.3587 2.66533C24.0653 4.37191 25.024 6.68653 25.024 9.1H6.82402Z" fill="var(--fill-0, #F4F6FA)"/>
<path id="Vector_2" d="M6.82402 9.10059C6.82402 11.5141 7.78277 13.8287 9.48935 15.5353C11.1959 17.2418 13.5106 18.2006 15.924 18.2006C18.3375 18.2006 20.6521 17.2418 22.3587 15.5353C24.0653 13.8287 25.024 11.5141 25.024 9.10059H6.82402Z" fill="var(--fill-0, #F4F6FA)"/>
<path id="Vector_3" d="M0.325 9.10059H31.525" stroke="var(--stroke-0, #222226)" stroke-width="1.56"/>
<path id="Vector_4" d="M0.325 9.10059H6.305" stroke="var(--stroke-0, #F4F6FA)" stroke-width="0.65" stroke-linecap="round"/>
<path id="Vector_5" d="M25.5437 9.10059H31.5237" stroke="var(--stroke-0, #F4F6FA)" stroke-width="0.65" stroke-linecap="round"/>
</g>
</svg>
