<svg preserveAspectRatio="none" width="100%" height="100%" overflow="visible" style="display: block;" viewBox="0 0 19.5 19.5" fill="none" xmlns="http://www.w3.org/2000/svg">
<g id="Group">
<path id="Vector" d="M0.750001 8.75C0.750001 4.979 0.750001 3.093 1.922 1.922C3.094 0.751001 4.979 0.750001 8.75 0.750001H10.75C14.521 0.750001 16.407 0.750001 17.578 1.922C18.749 3.094 18.75 4.979 18.75 8.75V10.75C18.75 14.521 18.75 16.407 17.578 17.578C16.406 18.749 14.521 18.75 10.75 18.75H8.75C4.979 18.75 3.093 18.75 1.922 17.578C0.751001 16.406 0.750001 14.521 0.750001 10.75V8.75Z" stroke="var(--stroke-0, #222226)" stroke-width="1.5"/>
<path id="Vector_2" d="M14.25 6.75C15.0784 6.75 15.75 6.07843 15.75 5.25C15.75 4.42157 15.0784 3.75 14.25 3.75C13.4216 3.75 12.75 4.42157 12.75 5.25C12.75 6.07843 13.4216 6.75 14.25 6.75Z" fill="var(--fill-0, #222226)"/>
<path id="Vector_3" d="M9.75 12.75C11.4069 12.75 12.75 11.4069 12.75 9.75C12.75 8.09315 11.4069 6.75 9.75 6.75C8.09315 6.75 6.75 8.09315 6.75 9.75C6.75 11.4069 8.09315 12.75 9.75 12.75Z" stroke="var(--stroke-0, #222226)" stroke-width="1.5"/>
</g>
</svg>
