<svg preserveAspectRatio="none" width="100%" height="100%" overflow="visible" style="display: block;" viewBox="0 0 24 24" fill="none" xmlns="http://www.w3.org/2000/svg">
<g id="fa7-brands:kakao-talk">
<path id="Vector" d="M12 2.49375C17.9663 2.49375 22.8 6.3075 22.8 11.01C22.8 15.7125 17.9663 19.5262 12 19.5262C11.3438 19.5262 10.7025 19.4812 10.08 19.3912C9.4575 19.83 5.8575 22.3575 5.51625 22.4062C5.51625 22.4062 5.3775 22.4587 5.2575 22.3912C5.1375 22.3237 5.16 22.14 5.16 22.14C5.1975 21.8925 6.0975 18.795 6.2625 18.2212C3.22125 16.7175 1.2 14.0475 1.2 11.0062C1.2 6.30375 6.03375 2.49375 12 2.49375ZM4.4325 8.46375C4.095 8.46375 3.82125 8.7375 3.82125 9.075C3.82125 9.4125 4.095 9.68625 4.4325 9.68625H5.40375V13.3875C5.40375 13.7175 5.685 13.9837 6.02625 13.9837C6.3675 13.9837 6.64875 13.7175 6.64875 13.3875V9.68625H7.62C7.9575 9.68625 8.23125 9.4125 8.23125 9.075C8.23125 8.7375 7.9575 8.46375 7.62 8.46375H4.42875H4.4325ZM9.7125 8.46375C9.3075 8.47125 8.98875 8.77875 8.88375 9.07875L7.395 13.0012C7.2075 13.59 7.3725 13.8075 7.54125 13.8862C7.66125 13.9425 7.8 13.9725 7.93875 13.9725C8.1975 13.9725 8.39625 13.8675 8.45625 13.6987L8.76375 12.8887H10.665L10.9725 13.695C11.0325 13.8637 11.2313 13.9687 11.49 13.9687C11.6288 13.9687 11.7638 13.9387 11.8875 13.8825C12.06 13.8037 12.225 13.5862 12.0338 12.9975L10.545 9.07875C10.44 8.77875 10.1213 8.47125 9.7125 8.46375ZM16.4963 8.46375C16.1513 8.46375 15.8738 8.745 15.8738 9.08625V13.35C15.8738 13.695 16.155 13.9725 16.4963 13.9725C16.8375 13.9725 17.1188 13.6912 17.1188 13.35V11.9925L17.3363 11.775L18.795 13.71C18.915 13.8675 19.095 13.9575 19.2938 13.9575C19.4288 13.9575 19.56 13.9162 19.6688 13.8337C19.8 13.7325 19.8863 13.5862 19.9088 13.4212C19.9313 13.2562 19.89 13.0912 19.7888 12.96L18.255 10.9275L19.6763 9.51C19.7738 9.4125 19.8225 9.2775 19.815 9.13125C19.8075 8.985 19.74 8.84625 19.6313 8.7375C19.515 8.62125 19.3575 8.55375 19.2037 8.55375C19.0687 8.55375 18.9488 8.6025 18.8588 8.6925L17.1225 10.4325V9.09375C17.1225 8.74875 16.8413 8.47125 16.5 8.47125L16.4963 8.46375ZM13.0725 8.46375C12.7238 8.46375 12.4388 8.745 12.4388 9.08625V13.3162C12.4388 13.6312 12.705 13.8862 13.035 13.89H15.0338C15.3638 13.89 15.63 13.6312 15.63 13.3162C15.63 13.0012 15.36 12.7462 15.0338 12.7462H13.71V9.08625C13.71 8.74125 13.425 8.46375 13.0725 8.46375ZM10.335 11.7862H9.09L9.7125 10.02L10.335 11.7862Z" fill="var(--fill-0, black)"/>
</g>
</svg>
