<svg preserveAspectRatio="none" width="100%" height="100%" overflow="visible" style="display: block;" viewBox="0 0 22.5 21.5" fill="none" xmlns="http://www.w3.org/2000/svg">
<g id="Group">
<path id="Vector" d="M11.25 17.75C17.049 17.75 21.75 13.944 21.75 9.25C21.75 4.556 17.049 0.75 11.25 0.75C5.451 0.75 0.75 4.556 0.75 9.25C0.75 12.223 2.635 14.84 5.49 16.358L4.75 20.75L9.75 17.664C10.24 17.7213 10.74 17.75 11.25 17.75Z" stroke="var(--stroke-0, #222226)" stroke-width="1.5" stroke-linejoin="round"/>
<path id="Vector_2" d="M3.75 7.25H6.75M5.25 11.75V7.25M7.25 11.75L9 7.25L10.75 11.75M7.75 10.75H10.25M12.25 7.25V11.75H14.25M15.75 7.25V11.75M15.75 10.25L18.75 7.25M16.75 9.25L18.75 11.75" stroke="var(--stroke-0, #222226)" stroke-width="1.2" stroke-linecap="round" stroke-linejoin="round"/>
</g>
</svg>
