<svg preserveAspectRatio="none" width="100%" height="100%" overflow="visible" style="display: block;" viewBox="0 0 13.5386 13.5386" fill="none" xmlns="http://www.w3.org/2000/svg">
<path id="Icon" d="M10.4167 5.62194L7.91669 3.12193M0.729172 12.8094L2.8444 12.5744C3.10283 12.5457 3.23205 12.5313 3.35283 12.4922C3.45998 12.4576 3.56195 12.4085 3.65598 12.3465C3.76196 12.2767 3.85389 12.1847 4.03775 12.0009L12.2917 3.74694C12.982 3.05658 12.982 1.93729 12.2917 1.24693C11.6013 0.556578 10.482 0.556578 9.79169 1.24693L1.53775 9.50086C1.35389 9.68472 1.26196 9.77665 1.19207 9.88263C1.13007 9.97666 1.08106 10.0786 1.04637 10.1858C1.00727 10.3066 0.992912 10.4358 0.964197 10.6942L0.729172 12.8094Z" stroke="var(--stroke-0, white)" stroke-width="1.45833" stroke-linecap="round" stroke-linejoin="round"/>
</svg>
