<svg preserveAspectRatio="none" width="100%" height="100%" overflow="visible" style="display: block;" viewBox="0 0 33.6 33.6" fill="none" xmlns="http://www.w3.org/2000/svg">
<g id="fluent:color-24-regular">
<path id="Vector" d="M6.95976 9.9463C10.4878 5.2471 17.7958 3.88029 22.9966 7.11429C28.1326 10.3063 30.0214 16.4467 27.9166 22.2067C25.9306 27.6463 20.6974 29.8003 16.9258 27.0643C15.5134 26.0395 14.965 24.7543 14.701 22.6675L14.5738 21.4831L14.5198 21.0055C14.3722 19.8847 14.1466 19.3831 13.6738 19.1191C13.0318 18.7615 12.6034 18.7531 11.7598 19.0795L11.3386 19.2547L11.1238 19.3483C9.90696 19.8763 9.09816 20.0623 8.07456 19.8475L7.83456 19.7911L7.63776 19.7347C4.29096 18.6979 3.79536 14.1583 6.95976 9.9463ZM8.14056 18.0055L8.28816 18.0499L8.44896 18.0859C8.97576 18.1903 9.42576 18.1039 10.1734 17.7955L10.8958 17.4871C12.3382 16.8955 13.2778 16.8391 14.551 17.5471C15.6514 18.1615 16.081 19.1047 16.2994 20.7391L16.363 21.2899L16.429 21.9283L16.4854 22.4347C16.6918 24.0679 17.0674 24.9427 17.983 25.6075C20.713 27.5875 24.6238 25.9783 26.227 21.5887C28.0462 16.6063 26.4358 11.3719 22.0462 8.6419C17.6362 5.9011 11.3674 7.07469 8.39856 11.0263C5.90856 14.3419 6.21456 17.3623 8.14056 18.0055ZM21.6106 15.6127C21.5539 15.4207 21.5362 15.2193 21.5585 15.0204C21.5809 14.8215 21.6428 14.629 21.7407 14.4544C21.8386 14.2798 21.9704 14.1266 22.1284 14.0037C22.2864 13.8808 22.4675 13.7908 22.6608 13.739C22.8542 13.6872 23.0559 13.6746 23.2542 13.702C23.4525 13.7293 23.6433 13.7961 23.8154 13.8984C23.9875 14.0006 24.1374 14.1363 24.2562 14.2974C24.3751 14.4585 24.4604 14.6417 24.5074 14.8363C24.5991 15.2167 24.5385 15.6178 24.3386 15.9541C24.1388 16.2905 23.8154 16.5354 23.4375 16.6367C23.0595 16.738 22.657 16.6876 22.3157 16.4963C21.9744 16.305 21.7214 15.9879 21.6106 15.6127ZM22.2034 19.7983C22.1524 19.608 22.1394 19.4095 22.1651 19.2142C22.1908 19.0189 22.2548 18.8306 22.3533 18.66C22.4518 18.4894 22.5829 18.3399 22.7392 18.22C22.8955 18.1 23.0739 18.0121 23.2642 17.9611C23.4544 17.9101 23.6529 17.8971 23.8482 17.9228C24.0435 17.9486 24.2319 18.0125 24.4025 18.111C24.5731 18.2095 24.7226 18.3406 24.8425 18.4969C24.9624 18.6532 25.0504 18.8316 25.1014 19.0219C25.2043 19.4062 25.1504 19.8157 24.9515 20.1602C24.7525 20.5047 24.4249 20.7561 24.0406 20.8591C23.6563 20.9621 23.2468 20.9081 22.9023 20.7092C22.5577 20.5103 22.3063 20.1826 22.2034 19.7983ZM19.237 12.0091C19.134 11.6248 19.1879 11.2153 19.3869 10.8708C19.5858 10.5263 19.9135 10.2749 20.2978 10.1719C20.6821 10.0689 21.0915 10.1229 21.4361 10.3218C21.7806 10.5207 22.032 10.8484 22.135 11.2327C22.1859 11.423 22.1989 11.6214 22.1732 11.8168C22.1475 12.0121 22.0836 12.2004 21.9851 12.371C21.8866 12.5416 21.7554 12.6911 21.5991 12.811C21.4428 12.931 21.2644 13.0189 21.0742 13.0699C20.6899 13.1729 20.2804 13.1189 19.9359 12.92C19.7653 12.8215 19.6157 12.6903 19.4958 12.5341C19.3759 12.3778 19.2879 12.1994 19.237 12.0091ZM19.2034 22.8067C19.1467 22.6147 19.129 22.4133 19.1513 22.2144C19.1737 22.0155 19.2356 21.823 19.3335 21.6484C19.4314 21.4738 19.5632 21.3206 19.7212 21.1977C19.8792 21.0748 20.0603 20.9848 20.2536 20.933C20.447 20.8812 20.6487 20.8686 20.847 20.896C21.0453 20.9233 21.2361 20.9901 21.4082 21.0924C21.5803 21.1946 21.7302 21.3303 21.849 21.4914C21.9679 21.6525 22.0532 21.8357 22.1002 22.0303C22.1919 22.4107 22.1313 22.8118 21.9314 23.1481C21.7316 23.4845 21.4082 23.7294 21.0303 23.8307C20.6523 23.932 20.2498 23.8816 19.9085 23.6903C19.5672 23.499 19.3142 23.1819 19.2034 22.8067ZM15.007 10.8427C14.9541 10.6518 14.9397 10.4523 14.9643 10.2558C14.989 10.0593 15.0523 9.86961 15.1507 9.6977C15.2491 9.52579 15.3805 9.37506 15.5375 9.25422C15.6944 9.13337 15.8737 9.04481 16.065 8.99362C16.2564 8.94244 16.4559 8.92966 16.6522 8.95602C16.8485 8.98237 17.0377 9.04735 17.2087 9.14718C17.3798 9.24702 17.5294 9.37975 17.6489 9.53771C17.7684 9.69567 17.8554 9.87573 17.905 10.0675C18.0039 10.4505 17.9475 10.8571 17.7481 11.1988C17.5487 11.5404 17.2224 11.7895 16.8403 11.8917C16.4581 11.994 16.051 11.9411 15.7077 11.7446C15.3643 11.5481 15.1125 11.224 15.007 10.8427Z" fill="var(--fill-0, white)"/>
</g>
</svg>
