<svg preserveAspectRatio="none" width="100%" height="100%" overflow="visible" style="display: block;" viewBox="0 0 33.6 33.6" fill="none" xmlns="http://www.w3.org/2000/svg">
<g id="heroicons:face-smile">
<path id="Vector" d="M20.6182 20.6184C20.1168 21.1199 19.5215 21.5177 18.8663 21.789C18.2111 22.0604 17.5089 22.2001 16.7998 22.2001C16.0907 22.2001 15.3885 22.0604 14.7333 21.789C14.0781 21.5177 13.4828 21.1199 12.9814 20.6184M27.5998 16.8C27.5998 18.2183 27.3205 19.6227 26.7777 20.933C26.235 22.2433 25.4394 23.4339 24.4366 24.4368C23.4337 25.4397 22.2431 26.2352 20.9328 26.7779C19.6225 27.3207 18.2181 27.6 16.7998 27.6C15.3815 27.6 13.9771 27.3207 12.6668 26.7779C11.3565 26.2352 10.1659 25.4397 9.16305 24.4368C8.16018 23.4339 7.36466 22.2433 6.82191 20.933C6.27915 19.6227 5.9998 18.2183 5.9998 16.8C5.9998 13.9357 7.13766 11.1887 9.16305 9.1633C11.1884 7.1379 13.9355 6.00005 16.7998 6.00005C19.6641 6.00005 22.4112 7.1379 24.4366 9.1633C26.462 11.1887 27.5998 13.9357 27.5998 16.8ZM14.0998 14.1C14.0998 14.5968 13.8982 15 13.6498 15C13.4014 15 13.1998 14.5968 13.1998 14.1C13.1998 13.6032 13.4014 13.2 13.6498 13.2C13.8982 13.2 14.0998 13.6032 14.0998 14.1ZM13.6498 14.1H13.6594V14.118H13.6498V14.1ZM20.3998 14.1C20.3998 14.5968 20.1982 15 19.9498 15C19.7014 15 19.4998 14.5968 19.4998 14.1C19.4998 13.6032 19.7014 13.2 19.9498 13.2C20.1982 13.2 20.3998 13.6032 20.3998 14.1ZM19.9498 14.1H19.9594V14.118H19.9498V14.1Z" stroke="var(--stroke-0, white)" stroke-width="1.6" stroke-linecap="round" stroke-linejoin="round"/>
</g>
</svg>
