<svg preserveAspectRatio="none" width="100%" height="100%" overflow="visible" style="display: block;" viewBox="0 0 23.8 20.8" fill="none" xmlns="http://www.w3.org/2000/svg">
<g id="Group">
<path id="Vector" d="M18.2 0.8H5.6C2.94903 0.8 0.8 2.94903 0.8 5.6V15.2C0.8 17.851 2.94903 20 5.6 20H18.2C20.851 20 23 17.851 23 15.2V5.6C23 2.94903 20.851 0.8 18.2 0.8Z" stroke="var(--stroke-0, white)" stroke-width="1.6"/>
<path id="Vector_2" d="M11.9 15.5C14.3853 15.5 16.4 13.4853 16.4 11C16.4 8.51472 14.3853 6.5 11.9 6.5C9.41472 6.5 7.4 8.51472 7.4 11C7.4 13.4853 9.41472 15.5 11.9 15.5Z" stroke="var(--stroke-0, white)" stroke-width="1.6"/>
<path id="Vector_3" d="M17.9 4.40371H18.5" stroke="var(--stroke-0, white)" stroke-width="1.6" stroke-linecap="round"/>
</g>
</svg>
