<svg preserveAspectRatio="none" width="100%" height="100%" overflow="visible" style="display: block;" viewBox="0 0 23.2 24.4005" fill="none" xmlns="http://www.w3.org/2000/svg">
<g id="Group">
<path id="Vector" d="M14.0002 12.9775L16.8442 10.1335C17.197 9.78186 17.3722 9.60546 17.4658 9.41586C17.6458 9.05586 17.6458 8.63226 17.4658 8.27106C17.3722 8.08146 17.197 7.90626 16.8454 7.55466C16.4938 7.20306 16.3174 7.02786 16.129 6.93426C15.9512 6.8457 15.7553 6.79961 15.5566 6.79961C15.358 6.79961 15.1621 6.8457 14.9842 6.93426C14.7946 7.02786 14.6182 7.20306 14.2666 7.55466L11.4226 10.3999M14.0002 12.9775L4.13385 22.8451C3.78225 23.1967 3.60585 23.3719 3.41625 23.4655C3.05625 23.6455 2.63265 23.6455 2.27145 23.4655C2.08185 23.3719 1.90665 23.1967 1.55505 22.8451C1.20345 22.4935 1.02825 22.3171 0.934646 22.1287C0.84609 21.9508 0.8 21.7549 0.8 21.5563C0.8 21.3576 0.84609 21.1617 0.934646 20.9839C1.02825 20.7943 1.20345 20.6179 1.55505 20.2663L11.4226 10.3999M14.0002 12.9775L11.4226 10.3999" stroke="var(--stroke-0, white)" stroke-width="1.6" stroke-linecap="round" stroke-linejoin="round"/>
<path id="Vector_2" d="M20.6 0.8L20.468 1.1588C20.2928 1.628 20.2064 1.8632 20.036 2.0348C19.8632 2.2064 19.628 2.294 19.1588 2.4668L18.8 2.6L19.1588 2.732C19.628 2.906 19.8632 2.9936 20.0348 3.164C20.2064 3.3368 20.2928 3.572 20.4668 4.0412L20.6 4.4L20.732 4.0412C20.9072 3.572 20.9936 3.3368 21.164 3.1652C21.3368 2.9936 21.572 2.906 22.0412 2.7332L22.4 2.6L22.0412 2.468C21.572 2.294 21.3368 2.2064 21.1652 2.036C20.9936 1.8632 20.9072 1.628 20.7332 1.1588L20.6 0.8ZM20.6 12.8L20.468 13.1588C20.2928 13.628 20.2064 13.8632 20.036 14.0348C19.8632 14.2064 19.628 14.294 19.1588 14.4668L18.8 14.6L19.1588 14.732C19.628 14.9072 19.8632 14.9936 20.0348 15.164C20.2064 15.3368 20.2928 15.572 20.4668 16.0412L20.6 16.4L20.732 16.0412C20.9072 15.572 20.9936 15.3368 21.164 15.1652C21.3368 14.9936 21.572 14.906 22.0412 14.7332L22.4 14.6L22.0412 14.468C21.572 14.2928 21.3368 14.2064 21.1652 14.036C20.9936 13.8632 20.9072 13.628 20.7332 13.1588L20.6 12.8ZM9.8 0.8L9.668 1.1588C9.4928 1.628 9.4064 1.8632 9.236 2.0348C9.0632 2.2064 8.828 2.294 8.3588 2.4668L8 2.6L8.3588 2.732C8.828 2.906 9.0632 2.9936 9.2348 3.164C9.4064 3.3368 9.494 3.572 9.6668 4.0412L9.8 4.4L9.932 4.0412C10.1072 3.572 10.1936 3.3368 10.364 3.1652C10.5368 2.9936 10.772 2.906 11.2412 2.7332L11.6 2.6L11.2412 2.468C10.772 2.294 10.5368 2.2064 10.3652 2.036C10.1936 1.8632 10.106 1.628 9.9332 1.1588L9.8 0.8Z" stroke="var(--stroke-0, white)" stroke-width="1.6" stroke-linejoin="round"/>
</g>
</svg>
