<svg preserveAspectRatio="none" width="100%" height="100%" overflow="visible" style="display: block;" viewBox="0 0 33.6 33.6" fill="none" xmlns="http://www.w3.org/2000/svg">
<g id="majesticons:flower-2-line">
<path id="Vector" d="M16.7998 18C11.9998 18 10.7998 14.0004 10.7998 12V7.20005L13.7998 9.60005L16.7998 6.00005L19.7998 9.60005L22.7998 7.20005V12C22.7998 14.0004 21.5998 18 16.7998 18ZM16.7998 18V27.6M16.7998 27.6H17.9998M16.7998 27.6H15.5998M17.9998 27.6C24.7198 27.6 26.3998 21.9996 26.3998 19.2C19.6798 19.2 17.9998 24.8004 17.9998 27.6ZM15.5998 27.6C8.8798 27.6 7.1998 21.9996 7.1998 19.2C13.9198 19.2 15.5998 24.8004 15.5998 27.6Z" stroke="var(--stroke-0, #222226)" stroke-width="1.6" stroke-linecap="round" stroke-linejoin="round"/>
</g>
</svg>
