<svg preserveAspectRatio="none" width="100%" height="100%" overflow="visible" style="display: block;" viewBox="0 0 18 18" fill="none" xmlns="http://www.w3.org/2000/svg">
<g id="Group">
<path id="Vector" d="M0.75 1.875C0.75 1.254 1.254 0.75 1.875 0.75H6.375C6.996 0.75 7.5 1.254 7.5 1.875V6.375C7.5 6.996 6.996 7.5 6.375 7.5H1.875C1.57663 7.5 1.29048 7.38147 1.0795 7.1705C0.868527 6.95952 0.75 6.67337 0.75 6.375V1.875ZM0.75 11.625C0.75 11.004 1.254 10.5 1.875 10.5H6.375C6.996 10.5 7.5 11.004 7.5 11.625V16.125C7.5 16.746 6.996 17.25 6.375 17.25H1.875C1.57663 17.25 1.29048 17.1315 1.0795 16.9205C0.868527 16.7095 0.75 16.4234 0.75 16.125V11.625ZM10.5 1.875C10.5 1.254 11.004 0.75 11.625 0.75H16.125C16.746 0.75 17.25 1.254 17.25 1.875V6.375C17.25 6.996 16.746 7.5 16.125 7.5H11.625C11.3266 7.5 11.0405 7.38147 10.8295 7.1705C10.6185 6.95952 10.5 6.67337 10.5 6.375V1.875Z" stroke="var(--stroke-0, #222226)" stroke-width="1.5" stroke-linecap="round" stroke-linejoin="round"/>
<path id="Vector_2" d="M3.75 3.75H4.5V4.5H3.75V3.75ZM3.75 13.5H4.5V14.25H3.75V13.5ZM13.5 3.75H14.25V4.5H13.5V3.75ZM10.5 10.5H11.25V11.25H10.5V10.5ZM10.5 16.5H11.25V17.25H10.5V16.5ZM16.5 10.5H17.25V11.25H16.5V10.5ZM16.5 16.5H17.25V17.25H16.5V16.5ZM13.5 13.5H14.25V14.25H13.5V13.5Z" stroke="var(--stroke-0, #222226)" stroke-width="1.5" stroke-linecap="round" stroke-linejoin="round"/>
</g>
</svg>
