<svg viewBox="0 0 12.7509 13.4754" fill="none" xmlns="http://www.w3.org/2000/svg">
  <path d="M2.0221 2.74732V11.09C2.02201 11.3282 2.06887 11.5642 2.16 11.7843C2.25113 12.0044 2.38475 12.2044 2.55321 12.3729C2.72167 12.5413 2.92168 12.675 3.1418 12.7661C3.36193 12.8572 3.59785 12.9041 3.8361 12.904H8.91476C9.39569 12.904 9.85692 12.7129 10.197 12.3729C10.537 12.0328 10.7281 11.5716 10.7281 11.0907V2.74665M0.571429 2.74732H12.1794" stroke="#222226" stroke-width="1.14286" stroke-linecap="round" stroke-linejoin="round"/>
  <path d="M4.19866 2.7481V1.65943C4.19849 1.51645 4.22653 1.37483 4.28119 1.24271C4.33584 1.11058 4.41604 0.990544 4.51717 0.889471C4.61831 0.788397 4.7384 0.708276 4.87056 0.6537C5.00271 0.599125 5.14434 0.571167 5.28733 0.57143H7.46333C7.60631 0.571167 7.74794 0.599125 7.8801 0.6537C8.01226 0.708276 8.13235 0.788397 8.23348 0.889471C8.33462 0.990544 8.41481 1.11058 8.46947 1.24271C8.52413 1.37483 8.55217 1.51645 8.552 1.65943V2.7481M4.92466 10.0661V6.4401M7.82666 10.0661V6.4401" stroke="#222226" stroke-width="1.14286" stroke-linecap="round" stroke-linejoin="round"/>
</svg>
