<svg width="114" height="107" viewBox="0 0 114 107" fill="none" xmlns="http://www.w3.org/2000/svg">
<g clip-path="url(#clip0_363_18885)">
<path d="M71.1142 84.4549C60.6616 84.4549 50.204 84.4549 39.7415 84.4549C34.8506 84.4549 31.1584 82.2351 28.6426 78.1285C27.5254 76.3231 27.222 74.2587 26.9334 72.2091C26.0159 65.4536 25.054 58.7055 24.1217 51.95C23.1894 45.1945 22.2645 38.3798 21.3322 31.6021C20.5923 26.3191 19.9189 21.036 19.1494 15.7678C18.4095 10.9213 19.5342 6.6963 23.2486 3.35925C25.7454 1.1322 28.9977 -0.0586209 32.3423 0.0295912C50.5394 0.0295912 68.7341 0.0295912 86.9264 0.0295912C88.978 -0.0249523 91.031 0.0392891 93.0752 0.221979C99.3053 0.961902 104.759 6.47433 105.609 12.7045C106.682 20.5403 107.829 28.3761 108.917 36.2118C109.903 43.1474 110.875 50.0854 111.832 57.0259C112.498 61.7688 113.149 66.5265 113.874 71.262C114.287 73.5066 114.006 75.8236 113.071 77.9051C112.135 79.9866 110.588 81.7342 108.636 82.9158C106.788 84.0055 104.668 84.547 102.524 84.477C92.0417 84.4524 81.5718 84.445 71.1142 84.4549ZM104.67 53.6296C104.682 53.4918 104.682 53.3531 104.67 53.2153C103.989 48.391 103.293 43.5963 102.628 38.7424C101.488 30.4848 100.312 22.2273 99.2535 13.955C98.9686 11.7365 97.8882 9.69695 96.213 8.21499C94.5378 6.73303 92.3817 5.90944 90.1451 5.8972C79.9045 6.03779 69.6566 5.94159 59.416 5.94159C50.5074 5.94159 41.5962 5.94159 32.6826 5.94159C31.1527 5.91859 29.6568 6.39384 28.4207 7.29564C25.8087 9.18245 25.1206 11.8536 25.5128 14.8651C26.1195 19.571 26.8076 24.2621 27.4588 28.9606C28.0902 33.4939 28.7166 38.0321 29.3382 42.5752C29.5971 44.4102 29.8413 46.2748 30.0781 48.2208C31.1658 47.2367 32.1129 46.3488 33.0896 45.4905C36.3674 42.5974 39.5565 39.5711 42.9528 36.8556C46.8373 33.7183 51.0919 33.6221 55.2429 36.3672C56.6576 37.3202 57.9982 38.3789 59.2533 39.5341C64.5955 44.3954 69.9008 49.3011 75.2134 54.192C76.6933 55.5312 76.6933 55.5386 78.2397 54.414L78.8094 53.9774C81.2068 52.0758 83.5597 50.1002 86.0237 48.2874C87.7635 46.9505 89.9032 46.2393 92.0971 46.2689C94.291 46.2984 96.4109 47.0669 98.1141 48.4502C99.9417 49.8412 101.71 51.2989 103.508 52.7195L104.67 53.6296Z" fill="#2A2C32"/>
<path d="M5.29667 32.4814C5.49645 33.8873 6.15466 37.8848 6.33964 39.2314C7.36559 46.5562 8.39372 53.8785 9.4246 61.1982C10.0165 65.4454 10.5788 69.6938 11.1707 73.9336C11.8439 78.735 11.5192 77.0559 12.2664 81.8496C13.6204 91.8383 24.571 100.645 35.0037 100.453C39.1101 100.453 38.1787 100.497 39.8728 100.497H86.5633C86.0863 101.855 85.3023 103.084 84.2752 104.092C82.4463 105.911 79.9728 106.937 77.3933 106.942C70.7936 107.016 64.1928 106.994 57.5857 107.001H33.5037C31.4865 107.021 29.4733 106.795 27.5096 106.333C23.0328 105.223 18.9049 103.009 15.5066 99.8906C10.2532 95.4511 6.79722 88.7899 6.0203 84.4687C5.12521 79.505 5.22343 80.1562 5.22343 80.1562C4.48351 75.0434 3.7419 69.9293 3.07597 64.8164C2.47668 60.4956 1.90697 56.1734 1.32987 51.8525C0.908166 48.6935 0.442948 45.5342 0.0730389 42.3603C-0.228592 40.2286 0.204073 38.0579 1.30058 36.2051C1.98399 35.1238 2.87835 34.1903 3.92851 33.46L5.29667 32.4814ZM15.451 23.1738C16.1908 28.6784 17.0106 34.1911 17.7801 39.7031C18.3424 43.7653 18.8759 47.8446 19.4383 51.8994C20.1534 57.0733 20.8801 62.2518 21.615 67.4355C22.0146 70.2842 22.4273 73.1341 22.7898 75.9902C23.2097 79.2555 24.6928 82.2929 27.0086 84.6328C29.3243 86.9723 32.3468 88.4859 35.6072 88.9394C37.2744 89.1232 38.9517 89.199 40.6287 89.168H98.8914L100.06 89.1387C99.8352 90.4838 99.3361 91.7698 98.5955 92.915C97.855 94.0598 96.8877 95.0409 95.7537 95.7978C93.7567 97.1101 91.4005 97.7695 89.0125 97.6846H40.1482C33.7483 97.6845 28.3089 96.5907 21.9607 91.1748C19.7482 89.2009 18.0393 86.7262 16.9744 83.959C16.3866 82.4868 15.9255 80.9659 15.5975 79.415C14.9391 76.3602 14.8569 75.7604 14.2059 71.1738C13.2194 64.0267 12.2181 56.8738 11.1971 49.7168C10.3684 43.7534 9.55662 37.7886 8.76249 31.8252C8.42741 30.1549 8.281 28.451 8.32597 26.748C8.45165 24.8246 9.03439 22.9582 10.0252 21.3047C11.0157 19.652 12.3852 18.2589 14.0213 17.2412C14.2037 17.1413 14.3958 17.0567 14.5926 16.9893C14.8441 18.8832 15.192 21.3317 15.451 23.1738Z" fill="#41444B"/>
<path d="M104.669 53.6295L103.559 52.7194C101.761 51.2988 99.993 49.8411 98.1654 48.4501C96.4622 47.0668 94.3424 46.2983 92.1485 46.2688C89.9546 46.2392 87.8148 46.9504 86.075 48.2873C83.6111 50.1001 81.2581 52.0757 78.8608 53.9773L78.2911 54.4139C76.715 55.5385 76.715 55.5311 75.2648 54.1919C69.9521 49.301 64.6469 44.3953 59.3046 39.534C58.0496 38.3788 56.7089 37.3201 55.2942 36.3671C51.1211 33.622 46.8887 33.7182 43.0041 36.8555C39.6079 39.6006 36.4188 42.5973 33.1409 45.4904C32.1642 46.3487 31.2171 47.2366 30.1294 48.2207C29.8631 46.2451 29.6189 44.4101 29.3895 42.5751C28.768 38.0319 28.1415 33.4938 27.5101 28.9605C26.859 24.262 26.1708 19.5709 25.5641 14.865C25.172 11.8535 25.8601 9.18234 28.472 7.29554C29.7081 6.39373 31.204 5.91848 32.734 5.94149C41.6426 5.94149 50.5538 5.94149 59.4674 5.94149C69.7079 5.94149 79.9559 6.03768 90.1964 5.89709C92.433 5.90934 94.5891 6.73293 96.2643 8.21489C97.9395 9.69685 99.0199 11.7364 99.3049 13.9548C100.363 22.2272 101.525 30.4847 102.679 38.7423C103.345 43.5666 104.04 48.3613 104.721 53.2152C104.716 53.3545 104.699 53.4932 104.669 53.6295ZM72.2977 27.6434C72.3751 30.1478 73.4341 32.5213 75.2461 34.2517C77.0582 35.9821 79.478 36.9306 81.9833 36.8925C84.3679 36.8247 86.63 35.821 88.2805 34.0985C89.931 32.3761 90.8372 30.0732 90.8032 27.6878C90.7296 25.1678 89.659 22.7799 87.8264 21.0485C85.9937 19.3172 83.5489 18.3839 81.0288 18.4536C78.6624 18.5385 76.424 19.5491 74.7953 21.2678C73.1665 22.9865 72.2776 25.2759 72.3199 27.6434H72.2977Z" fill="white"/>
<path d="M72.3208 27.6436C72.2786 25.2724 73.1706 22.9797 74.8041 21.2604C76.4376 19.5411 78.6816 18.533 81.0518 18.4537C83.572 18.384 86.0168 19.3173 87.8495 21.0487C89.6821 22.78 90.7527 25.1679 90.8263 27.688C90.8603 30.0733 89.9541 32.3762 88.3036 34.0987C86.6531 35.8212 84.391 36.8248 82.0064 36.8926C79.5011 36.9307 77.0813 35.9822 75.2692 34.2518C73.4572 32.5214 72.3982 30.1479 72.3208 27.6436Z" fill="#41444B"/>
<path d="M108.191 72.0537C108.191 72.0537 99.8298 64.1143 94.9611 61.7466C90.0924 59.3788 75.0424 63.2782 66.4519 61.7466C57.8614 60.2149 39.9404 39.4601 39.9404 39.4601C40.9541 38.5722 41.9826 37.6991 43.0333 36.8555C46.9179 33.7183 51.1725 33.6221 55.316 36.3672C56.7308 37.3202 58.0714 38.3788 59.3264 39.5341C64.6687 44.3954 69.9739 49.3011 75.2866 54.1919C76.7664 55.5312 76.7664 55.5386 78.3129 54.4139L78.8826 53.9774C81.28 52.0758 83.6329 50.1002 86.0969 48.2873C87.8366 46.9504 89.9764 46.2393 92.1703 46.2688C94.3642 46.2984 96.4841 47.0669 98.1872 48.4501C100.015 49.8412 101.783 51.2989 103.581 52.7195L104.691 53.6296L108.191 72.0537Z" fill="#41444B"/>
</g>
<defs>
<clipPath id="clip0_363_18885">
<rect width="114" height="107" fill="white"/>
</clipPath>
</defs>
</svg>
