<svg width="550" height="143" viewBox="0 0 550 143" fill="none" xmlns="http://www.w3.org/2000/svg">
<g clip-path="url(#clip0_363_18883)">
<path d="M71.1142 105.455C60.6616 105.455 50.204 105.455 39.7415 105.455C34.8506 105.455 31.1584 103.235 28.6426 99.1285C27.5254 97.3231 27.222 95.2587 26.9334 93.2091C26.0159 86.4536 25.054 79.7055 24.1217 72.95C23.1894 66.1945 22.2645 59.3798 21.3322 52.6021C20.5923 47.3191 19.9189 42.036 19.1494 36.7678C18.4095 31.9213 19.5342 27.6963 23.2486 24.3592C25.7454 22.1322 28.9977 20.9414 32.3423 21.0296C50.5394 21.0296 68.7341 21.0296 86.9264 21.0296C88.978 20.975 91.031 21.0393 93.0752 21.222C99.3053 21.9619 104.759 27.4743 105.609 33.7045C106.682 41.5403 107.829 49.3761 108.917 57.2118C109.903 64.1474 110.875 71.0854 111.832 78.0259C112.498 82.7688 113.149 87.5265 113.874 92.262C114.287 94.5066 114.006 96.8236 113.071 98.9051C112.135 100.987 110.588 102.734 108.636 103.916C106.788 105.006 104.668 105.547 102.524 105.477C92.0417 105.452 81.5718 105.445 71.1142 105.455ZM104.67 74.6296C104.682 74.4918 104.682 74.3531 104.67 74.2153C103.989 69.391 103.293 64.5963 102.628 59.7424C101.488 51.4848 100.312 43.2273 99.2535 34.955C98.9686 32.7365 97.8882 30.697 96.213 29.215C94.5378 27.733 92.3817 26.9094 90.1451 26.8972C79.9045 27.0378 69.6566 26.9416 59.416 26.9416C50.5074 26.9416 41.5962 26.9416 32.6826 26.9416C31.1527 26.9186 29.6568 27.3938 28.4207 28.2956C25.8087 30.1824 25.1206 32.8536 25.5128 35.8651C26.1195 40.571 26.8076 45.2621 27.4588 49.9606C28.0902 54.4939 28.7166 59.0321 29.3382 63.5752C29.5971 65.4102 29.8413 67.2748 30.0781 69.2208C31.1658 68.2367 32.1129 67.3488 33.0896 66.4905C36.3674 63.5974 39.5565 60.5711 42.9528 57.8556C46.8373 54.7183 51.0919 54.6221 55.2429 57.3672C56.6576 58.3202 57.9982 59.3789 59.2533 60.5341C64.5955 65.3954 69.9008 70.3011 75.2134 75.192C76.6933 76.5312 76.6933 76.5386 78.2397 75.414L78.8094 74.9774C81.2068 73.0758 83.5597 71.1002 86.0237 69.2874C87.7635 67.9505 89.9032 67.2393 92.0971 67.2689C94.291 67.2984 96.4109 68.0669 98.1141 69.4502C99.9417 70.8412 101.71 72.2989 103.508 73.7195L104.67 74.6296Z" fill="#2A2C32"/>
<path d="M5.29667 53.4814C5.49645 54.8873 6.15466 58.8848 6.33964 60.2314C7.36559 67.5562 8.39372 74.8785 9.4246 82.1982C10.0165 86.4454 10.5788 90.6938 11.1707 94.9336C11.8439 99.735 11.5192 98.0559 12.2664 102.85C13.6204 112.838 24.571 121.645 35.0037 121.453C39.1101 121.453 38.1787 121.497 39.8728 121.497H86.5633C86.0863 122.855 85.3023 124.084 84.2752 125.092C82.4463 126.911 79.9728 127.937 77.3933 127.942C70.7936 128.016 64.1928 127.994 57.5857 128.001H33.5037C31.4865 128.021 29.4733 127.795 27.5096 127.333C23.0328 126.223 18.9049 124.009 15.5066 120.891C10.2532 116.451 6.79722 109.79 6.0203 105.469C5.12521 100.505 5.22343 101.156 5.22343 101.156C4.48351 96.0434 3.7419 90.9293 3.07597 85.8164C2.47668 81.4956 1.90697 77.1734 1.32987 72.8525C0.908166 69.6935 0.442948 66.5342 0.0730389 63.3603C-0.228592 61.2286 0.204073 59.0579 1.30058 57.2051C1.98399 56.1238 2.87835 55.1903 3.92851 54.46L5.29667 53.4814ZM15.451 44.1738C16.1908 49.6784 17.0106 55.1911 17.7801 60.7031C18.3424 64.7653 18.8759 68.8446 19.4383 72.8994C20.1534 78.0733 20.8801 83.2518 21.615 88.4355C22.0146 91.2842 22.4273 94.1341 22.7898 96.9902C23.2097 100.255 24.6928 103.293 27.0086 105.633C29.3243 107.972 32.3468 109.486 35.6072 109.939C37.2744 110.123 38.9517 110.199 40.6287 110.168H98.8914L100.06 110.139C99.8352 111.484 99.3361 112.77 98.5955 113.915C97.855 115.06 96.8877 116.041 95.7537 116.798C93.7567 118.11 91.4005 118.769 89.0125 118.685H40.1482C33.7483 118.684 28.3089 117.591 21.9607 112.175C19.7482 110.201 18.0393 107.726 16.9744 104.959C16.3866 103.487 15.9255 101.966 15.5975 100.415C14.9391 97.3602 14.8569 96.7604 14.2059 92.1738C13.2194 85.0267 12.2181 77.8738 11.1971 70.7168C10.3684 64.7534 9.55662 58.7886 8.76249 52.8252C8.42741 51.1549 8.281 49.451 8.32597 47.748C8.45165 45.8246 9.03439 43.9582 10.0252 42.3047C11.0157 40.652 12.3852 39.2589 14.0213 38.2412C14.2037 38.1413 14.3958 38.0567 14.5926 37.9893C14.8441 39.8832 15.192 42.3317 15.451 44.1738Z" fill="#41444B"/>
<path d="M104.669 74.6295L103.559 73.7194C101.761 72.2988 99.993 70.8411 98.1654 69.4501C96.4622 68.0668 94.3424 67.2983 92.1485 67.2688C89.9546 67.2392 87.8148 67.9504 86.075 69.2873C83.6111 71.1001 81.2581 73.0757 78.8608 74.9773L78.2911 75.4139C76.715 76.5385 76.715 76.5311 75.2648 75.1919C69.9521 70.301 64.6469 65.3953 59.3046 60.534C58.0496 59.3788 56.7089 58.3201 55.2942 57.3671C51.1211 54.622 46.8887 54.7182 43.0041 57.8555C39.6079 60.6006 36.4188 63.5973 33.1409 66.4904C32.1642 67.3487 31.2171 68.2366 30.1294 69.2207C29.8631 67.2451 29.6189 65.4101 29.3895 63.5751C28.768 59.0319 28.1415 54.4938 27.5101 49.9605C26.859 45.262 26.1708 40.5709 25.5641 35.865C25.172 32.8535 25.8601 30.1823 28.472 28.2955C29.7081 27.3937 31.204 26.9185 32.734 26.9415C41.6426 26.9415 50.5538 26.9415 59.4674 26.9415C69.7079 26.9415 79.9559 27.0377 90.1964 26.8971C92.433 26.9093 94.5891 27.7329 96.2643 29.2149C97.9395 30.6968 99.0199 32.7364 99.3049 34.9548C100.363 43.2272 101.525 51.4847 102.679 59.7423C103.345 64.5666 104.04 69.3613 104.721 74.2152C104.716 74.3545 104.699 74.4932 104.669 74.6295ZM72.2977 48.6434C72.3751 51.1478 73.4341 53.5213 75.2461 55.2517C77.0582 56.9821 79.478 57.9306 81.9833 57.8925C84.3679 57.8247 86.63 56.821 88.2805 55.0985C89.931 53.3761 90.8372 51.0732 90.8032 48.6878C90.7296 46.1678 89.659 43.7799 87.8264 42.0485C85.9937 40.3172 83.5489 39.3839 81.0288 39.4536C78.6624 39.5385 76.424 40.5491 74.7953 42.2678C73.1665 43.9865 72.2776 46.2759 72.3199 48.6434H72.2977Z" fill="white"/>
<path d="M72.3208 48.6436C72.2786 46.2724 73.1706 43.9797 74.8041 42.2604C76.4376 40.5411 78.6816 39.533 81.0518 39.4537C83.572 39.384 86.0168 40.3173 87.8495 42.0487C89.6821 43.78 90.7527 46.1679 90.8263 48.688C90.8603 51.0733 89.9541 53.3762 88.3036 55.0987C86.6531 56.8212 84.391 57.8248 82.0064 57.8926C79.5011 57.9307 77.0813 56.9822 75.2692 55.2518C73.4572 53.5214 72.3982 51.1479 72.3208 48.6436Z" fill="#41444B"/>
<path d="M108.191 93.0537C108.191 93.0537 99.8298 85.1143 94.9611 82.7466C90.0924 80.3788 75.0424 84.2782 66.4519 82.7466C57.8614 81.2149 39.9404 60.4601 39.9404 60.4601C40.9541 59.5722 41.9826 58.6991 43.0333 57.8555C46.9179 54.7183 51.1725 54.6221 55.316 57.3672C56.7308 58.3202 58.0714 59.3788 59.3264 60.5341C64.6687 65.3954 69.9739 70.3011 75.2866 75.1919C76.7664 76.5312 76.7664 76.5386 78.3129 75.4139L78.8826 74.9774C81.28 73.0758 83.6329 71.1002 86.0969 69.2873C87.8366 67.9504 89.9764 67.2393 92.1703 67.2688C94.3642 67.2984 96.4841 68.0669 98.1872 69.4501C100.015 70.8412 101.783 72.2989 103.581 73.7195L104.691 74.6296L108.191 93.0537Z" fill="#41444B"/>
</g>
<path d="M483.27 53.0314H500.848L523.758 113.5H508.23L483.27 53.0314ZM508.23 113.5L516.141 94.6915H518.016L517.078 95.2189L532.488 53.0314H549.949L515.73 138.813H498.152L508.23 113.5Z" fill="#212121"/>
<path d="M420.308 53.0314H436.948V67.2111L434.312 83.2657L436.948 101.313V138.813H420.308V53.0314ZM438.823 105.238H431.44V61.2931H438.823L432.847 83.2657C432.847 76.1564 433.726 70.2384 435.483 65.5118C437.241 60.7462 439.8 57.2111 443.159 54.9064C446.519 52.5626 450.581 51.3907 455.347 51.3907C460.815 51.3907 465.679 52.7775 469.937 55.5509C474.233 58.3243 477.573 62.1329 479.956 66.9767C482.378 71.8204 483.589 77.2501 483.589 83.2657C483.589 89.2423 482.378 94.672 479.956 99.5548C477.573 104.399 474.233 108.207 469.937 110.981C465.679 113.754 460.815 115.141 455.347 115.141C450.581 115.141 446.519 113.969 443.159 111.625C439.8 109.281 437.241 105.746 435.483 101.02C433.726 96.2931 432.847 90.3751 432.847 83.2657L438.823 105.238ZM451.655 99.9064C454.585 99.9064 457.202 99.2032 459.507 97.797C461.851 96.3517 463.647 94.3595 464.897 91.8204C466.187 89.2814 466.831 86.4298 466.831 83.2657C466.831 80.0236 466.187 77.1525 464.897 74.6525C463.647 72.1134 461.851 70.1407 459.507 68.7345C457.202 67.3282 454.585 66.6251 451.655 66.6251C448.765 66.6251 446.167 67.3282 443.862 68.7345C441.558 70.1407 439.741 72.1134 438.413 74.6525C437.124 77.1525 436.479 80.0236 436.479 83.2657C436.479 86.4689 437.124 89.34 438.413 91.879C439.741 94.379 441.558 96.3517 443.862 97.797C446.167 99.2032 448.765 99.9064 451.655 99.9064Z" fill="#212121"/>
<path d="M349.494 53.0314H366.135V67.2111L363.498 83.2657L366.135 101.313V138.813H349.494V53.0314ZM368.01 105.238H360.627V61.2931H368.01L362.033 83.2657C362.033 76.1564 362.912 70.2384 364.67 65.5118C366.428 60.7462 368.986 57.2111 372.346 54.9064C375.705 52.5626 379.768 51.3907 384.533 51.3907C390.002 51.3907 394.865 52.7775 399.123 55.5509C403.42 58.3243 406.76 62.1329 409.143 66.9767C411.564 71.8204 412.775 77.2501 412.775 83.2657C412.775 89.2423 411.564 94.672 409.143 99.5548C406.76 104.399 403.42 108.207 399.123 110.981C394.865 113.754 390.002 115.141 384.533 115.141C379.768 115.141 375.705 113.969 372.346 111.625C368.986 109.281 366.428 105.746 364.67 101.02C362.912 96.2931 362.033 90.3751 362.033 83.2657L368.01 105.238ZM380.842 99.9064C383.771 99.9064 386.389 99.2032 388.693 97.797C391.037 96.3517 392.834 94.3595 394.084 91.8204C395.373 89.2814 396.018 86.4298 396.018 83.2657C396.018 80.0236 395.373 77.1525 394.084 74.6525C392.834 72.1134 391.037 70.1407 388.693 68.7345C386.389 67.3282 383.771 66.6251 380.842 66.6251C377.951 66.6251 375.354 67.3282 373.049 68.7345C370.744 70.1407 368.928 72.1134 367.6 74.6525C366.311 77.1525 365.666 80.0236 365.666 83.2657C365.666 86.4689 366.311 89.34 367.6 91.879C368.928 94.379 370.744 96.3517 373.049 97.797C375.354 99.2032 377.951 99.9064 380.842 99.9064Z" fill="#212121"/>
<path d="M326.373 83.2657C326.373 90.3751 325.494 96.2931 323.736 101.02C321.979 105.746 319.42 109.281 316.061 111.625C312.74 113.969 308.678 115.141 303.873 115.141C298.482 115.141 293.639 113.754 289.342 110.981C285.045 108.207 281.686 104.399 279.264 99.5548C276.842 94.672 275.631 89.2423 275.631 83.2657C275.631 77.2501 276.842 71.8204 279.264 66.9767C281.686 62.1329 285.045 58.3243 289.342 55.5509C293.639 52.7775 298.482 51.3907 303.873 51.3907C308.678 51.3907 312.74 52.5626 316.061 54.9064C319.42 57.2111 321.979 60.7462 323.736 65.5118C325.494 70.2384 326.373 76.1564 326.373 83.2657L320.396 61.2931H327.779V105.238H320.396L326.373 83.2657ZM307.564 99.9064C310.494 99.9064 313.111 99.2032 315.416 97.797C317.721 96.3517 319.518 94.379 320.807 91.879C322.096 89.34 322.74 86.4689 322.74 83.2657C322.74 80.0236 322.096 77.1525 320.807 74.6525C319.518 72.1134 317.721 70.1407 315.416 68.7345C313.111 67.3282 310.494 66.6251 307.564 66.6251C304.635 66.6251 302.018 67.3282 299.713 68.7345C297.447 70.1407 295.65 72.1134 294.322 74.6525C293.033 77.1525 292.389 80.0236 292.389 83.2657C292.389 86.4298 293.033 89.2814 294.322 91.8204C295.65 94.3595 297.447 96.3517 299.713 97.797C302.018 99.2032 304.635 99.9064 307.564 99.9064ZM322.271 113.5V101.313L324.908 83.2657L322.271 67.2111V53.0314H338.912V113.5H322.271Z" fill="#212121"/>
<path d="M210.677 53.0314H227.317V113.5H210.677V53.0314ZM251.458 80.4532C251.458 76.0392 250.462 72.6407 248.47 70.2579C246.517 67.8361 243.763 66.6251 240.208 66.6251C237.786 66.6251 235.599 67.2306 233.646 68.4415C231.692 69.6134 230.149 71.4493 229.017 73.9493C227.884 76.4103 227.317 79.5157 227.317 83.2657L225.442 72.0157V61.9962H229.192L225.442 72.0157C225.442 67.9532 226.321 64.379 228.079 61.2931C229.876 58.1681 232.356 55.7462 235.521 54.0275C238.685 52.2697 242.298 51.3907 246.36 51.3907C250.892 51.3907 254.778 52.4454 258.021 54.5548C261.302 56.6642 263.802 59.6915 265.521 63.6368C267.239 67.5431 268.099 72.2111 268.099 77.6407V113.5H251.458V80.4532Z" fill="#212121"/>
<path d="M171.152 115.141C165.176 115.141 159.473 114.008 154.043 111.742C148.652 109.438 143.809 106.098 139.512 101.723L150.703 89.4767C153.789 92.6407 157.012 94.9845 160.371 96.5079C163.73 97.9923 167.324 98.7345 171.152 98.7345C174.004 98.7345 176.465 98.3243 178.535 97.504C180.645 96.6837 182.246 95.5118 183.34 93.9884C184.434 92.465 184.98 90.6876 184.98 88.6564C184.98 86.9376 184.551 85.4728 183.691 84.2618C182.871 83.0509 181.465 81.9767 179.473 81.0392C177.48 80.0626 174.707 79.1056 171.152 78.1681L167.168 77.1134C159.043 74.965 152.91 71.84 148.77 67.7384C144.629 63.6368 142.559 58.6368 142.559 52.7384C142.559 47.8556 143.867 43.4611 146.484 39.5548C149.102 35.6095 152.695 32.5431 157.266 30.3556C161.875 28.129 167.051 27.0157 172.793 27.0157C178.301 27.0157 183.555 28.1095 188.555 30.297C193.594 32.4845 198.086 35.59 202.031 39.6134L191.016 51.8595C188.242 49.0079 185.352 46.8986 182.344 45.5314C179.336 44.1251 176.152 43.422 172.793 43.422C170.371 43.422 168.184 43.8126 166.23 44.5939C164.277 45.3751 162.754 46.4689 161.66 47.8751C160.566 49.2423 160.02 50.8243 160.02 52.6212C160.02 54.0275 160.391 55.2384 161.133 56.254C161.914 57.2306 163.125 58.129 164.766 58.9493C166.445 59.7697 168.691 60.5509 171.504 61.2931L175.488 62.3478C181.699 63.9493 186.777 65.9611 190.723 68.3829C194.707 70.7657 197.656 73.5978 199.57 76.879C201.484 80.1603 202.441 83.9689 202.441 88.3048C202.441 93.5001 201.113 98.129 198.457 102.192C195.84 106.254 192.168 109.438 187.441 111.742C182.715 114.008 177.285 115.141 171.152 115.141Z" fill="#212121"/>
<defs>
<clipPath id="clip0_363_18883">
<rect width="114" height="107" fill="white" transform="translate(0 21)"/>
</clipPath>
</defs>
</svg>
