<svg width="411" height="112" viewBox="0 0 411 112" fill="none" xmlns="http://www.w3.org/2000/svg">
<path d="M343.758 26.0156H361.336L384.246 86.4844H368.719L343.758 26.0156ZM368.719 86.4844L376.629 67.6758H378.504L377.566 68.2031L392.977 26.0156H410.438L376.219 111.797H358.641L368.719 86.4844Z" fill="#212121"/>
<path d="M280.796 26.0156H297.437V40.1953L294.8 56.25L297.437 74.2969V111.797H280.796V26.0156ZM299.312 78.2227H291.929V34.2773H299.312L293.335 56.25C293.335 49.1406 294.214 43.2227 295.972 38.4961C297.729 33.7305 300.288 30.1953 303.647 27.8906C307.007 25.5469 311.069 24.375 315.835 24.375C321.304 24.375 326.167 25.7617 330.425 28.5352C334.722 31.3086 338.062 35.1172 340.444 39.9609C342.866 44.8047 344.077 50.2344 344.077 56.25C344.077 62.2266 342.866 67.6563 340.444 72.5391C338.062 77.3828 334.722 81.1914 330.425 83.9648C326.167 86.7383 321.304 88.125 315.835 88.125C311.069 88.125 307.007 86.9531 303.647 84.6094C300.288 82.2656 297.729 78.7305 295.972 74.0039C294.214 69.2773 293.335 63.3594 293.335 56.25L299.312 78.2227ZM312.144 72.8906C315.073 72.8906 317.69 72.1875 319.995 70.7812C322.339 69.3359 324.136 67.3438 325.386 64.8047C326.675 62.2656 327.319 59.4141 327.319 56.25C327.319 53.0078 326.675 50.1367 325.386 47.6367C324.136 45.0977 322.339 43.125 319.995 41.7188C317.69 40.3125 315.073 39.6094 312.144 39.6094C309.253 39.6094 306.655 40.3125 304.351 41.7188C302.046 43.125 300.229 45.0977 298.901 47.6367C297.612 50.1367 296.968 53.0078 296.968 56.25C296.968 59.4531 297.612 62.3242 298.901 64.8633C300.229 67.3633 302.046 69.3359 304.351 70.7812C306.655 72.1875 309.253 72.8906 312.144 72.8906Z" fill="#212121"/>
<path d="M209.982 26.0156H226.623V40.1953L223.986 56.25L226.623 74.2969V111.797H209.982V26.0156ZM228.498 78.2227H221.115V34.2773H228.498L222.521 56.25C222.521 49.1406 223.4 43.2227 225.158 38.4961C226.916 33.7305 229.475 30.1953 232.834 27.8906C236.193 25.5469 240.256 24.375 245.021 24.375C250.49 24.375 255.354 25.7617 259.611 28.5352C263.908 31.3086 267.248 35.1172 269.631 39.9609C272.053 44.8047 273.264 50.2344 273.264 56.25C273.264 62.2266 272.053 67.6563 269.631 72.5391C267.248 77.3828 263.908 81.1914 259.611 83.9648C255.354 86.7383 250.49 88.125 245.021 88.125C240.256 88.125 236.193 86.9531 232.834 84.6094C229.475 82.2656 226.916 78.7305 225.158 74.0039C223.4 69.2773 222.521 63.3594 222.521 56.25L228.498 78.2227ZM241.33 72.8906C244.26 72.8906 246.877 72.1875 249.182 70.7812C251.525 69.3359 253.322 67.3438 254.572 64.8047C255.861 62.2656 256.506 59.4141 256.506 56.25C256.506 53.0078 255.861 50.1367 254.572 47.6367C253.322 45.0977 251.525 43.125 249.182 41.7188C246.877 40.3125 244.26 39.6094 241.33 39.6094C238.439 39.6094 235.842 40.3125 233.537 41.7188C231.232 43.125 229.416 45.0977 228.088 47.6367C226.799 50.1367 226.154 53.0078 226.154 56.25C226.154 59.4531 226.799 62.3242 228.088 64.8633C229.416 67.3633 231.232 69.3359 233.537 70.7812C235.842 72.1875 238.439 72.8906 241.33 72.8906Z" fill="#212121"/>
<path d="M186.861 56.25C186.861 63.3594 185.982 69.2773 184.225 74.0039C182.467 78.7305 179.908 82.2656 176.549 84.6094C173.229 86.9531 169.166 88.125 164.361 88.125C158.971 88.125 154.127 86.7383 149.83 83.9648C145.533 81.1914 142.174 77.3828 139.752 72.5391C137.33 67.6563 136.119 62.2266 136.119 56.25C136.119 50.2344 137.33 44.8047 139.752 39.9609C142.174 35.1172 145.533 31.3086 149.83 28.5352C154.127 25.7617 158.971 24.375 164.361 24.375C169.166 24.375 173.229 25.5469 176.549 27.8906C179.908 30.1953 182.467 33.7305 184.225 38.4961C185.982 43.2227 186.861 49.1406 186.861 56.25L180.885 34.2773H188.268V78.2227H180.885L186.861 56.25ZM168.053 72.8906C170.982 72.8906 173.6 72.1875 175.904 70.7812C178.209 69.3359 180.006 67.3633 181.295 64.8633C182.584 62.3242 183.229 59.4531 183.229 56.25C183.229 53.0078 182.584 50.1367 181.295 47.6367C180.006 45.0977 178.209 43.125 175.904 41.7188C173.6 40.3125 170.982 39.6094 168.053 39.6094C165.123 39.6094 162.506 40.3125 160.201 41.7188C157.936 43.125 156.139 45.0977 154.811 47.6367C153.521 50.1367 152.877 53.0078 152.877 56.25C152.877 59.4141 153.521 62.2656 154.811 64.8047C156.139 67.3438 157.936 69.3359 160.201 70.7812C162.506 72.1875 165.123 72.8906 168.053 72.8906ZM182.76 86.4844V74.2969L185.396 56.25L182.76 40.1953V26.0156H199.4V86.4844H182.76Z" fill="#212121"/>
<path d="M71.165 26.0156H87.8057V86.4844H71.165V26.0156ZM111.946 53.4375C111.946 49.0234 110.95 45.625 108.958 43.2422C107.005 40.8203 104.251 39.6094 100.696 39.6094C98.2744 39.6094 96.0869 40.2148 94.1338 41.4258C92.1807 42.5977 90.6377 44.4336 89.5049 46.9336C88.3721 49.3945 87.8057 52.5 87.8057 56.25L85.9307 45V34.9805H89.6807L85.9307 45C85.9307 40.9375 86.8096 37.3633 88.5674 34.2773C90.3643 31.1523 92.8447 28.7305 96.0088 27.0117C99.1729 25.2539 102.786 24.375 106.849 24.375C111.38 24.375 115.267 25.4297 118.509 27.5391C121.79 29.6484 124.29 32.6758 126.009 36.6211C127.728 40.5273 128.587 45.1953 128.587 50.625V86.4844H111.946V53.4375Z" fill="#212121"/>
<path d="M31.6406 88.125C25.6641 88.125 19.9609 86.9922 14.5312 84.7266C9.14062 82.4219 4.29687 79.082 0 74.707L11.1914 62.4609C14.2773 65.625 17.5 67.9688 20.8594 69.4922C24.2187 70.9766 27.8125 71.7188 31.6406 71.7188C34.4922 71.7188 36.9531 71.3086 39.0234 70.4883C41.1328 69.668 42.7344 68.4961 43.8281 66.9727C44.9219 65.4492 45.4688 63.6719 45.4688 61.6406C45.4688 59.9219 45.0391 58.457 44.1797 57.2461C43.3594 56.0352 41.9531 54.9609 39.9609 54.0234C37.9688 53.0469 35.1953 52.0898 31.6406 51.1523L27.6562 50.0977C19.5313 47.9492 13.3984 44.8242 9.25781 40.7227C5.11719 36.6211 3.04688 31.6211 3.04688 25.7227C3.04688 20.8398 4.35547 16.4453 6.97266 12.5391C9.58984 8.59375 13.1836 5.52734 17.7539 3.33984C22.3633 1.11328 27.5391 0 33.2812 0C38.7891 0 44.043 1.09375 49.043 3.28125C54.082 5.46875 58.5742 8.57422 62.5195 12.5977L51.5039 24.8438C48.7305 21.9922 45.8398 19.8828 42.832 18.5156C39.8242 17.1094 36.6406 16.4062 33.2812 16.4062C30.8594 16.4062 28.6719 16.7969 26.7188 17.5781C24.7656 18.3594 23.2422 19.4531 22.1484 20.8594C21.0547 22.2266 20.5078 23.8086 20.5078 25.6055C20.5078 27.0117 20.8789 28.2227 21.6211 29.2383C22.4023 30.2148 23.6133 31.1133 25.2539 31.9336C26.9336 32.7539 29.1797 33.5352 31.9922 34.2773L35.9766 35.332C42.1875 36.9336 47.2656 38.9453 51.2109 41.3672C55.1953 43.75 58.1445 46.582 60.0586 49.8633C61.9727 53.1445 62.9297 56.9531 62.9297 61.2891C62.9297 66.4844 61.6016 71.1133 58.9453 75.1758C56.3281 79.2383 52.6563 82.4219 47.9297 84.7266C43.2031 86.9922 37.7734 88.125 31.6406 88.125Z" fill="#212121"/>
</svg>
